<svg aria-hidden="true" style="width:0;height:0;position:absolute;overflow:hidden" xmlns="http://www.w3.org/2000/svg"><defs><symbol id="airbnb-icon" viewBox="0 0 30 32"><path fill="#fff" style="fill:var(--color1,#fff)" d="M15.04 24.361c-1.777-2.271-2.793-4.232-3.148-5.987-1.574-6.348 7.922-6.348 6.348 0-.406 1.755-1.473 3.819-3.199 5.987zm9.648 5.213c-2.945 1.29-5.891-.774-8.379-3.561 7.313-9.29 3.301-14.348-1.27-14.348-3.859 0-5.992 3.252-5.129 7.174.508 2.116 1.777 4.439 3.859 7.122-2.285 2.529-4.215 3.768-5.992 3.922-3.504.568-6.246-2.89-4.926-6.451 1.066-2.787 7.871-16.516 8.176-17.238 1.066-2.168 1.777-4.077 4.164-4.077 2.285 0 3.098 1.806 4.215 4.284 2.59 5.006 6.297 12.645 8.074 17.032.762 2.323-.203 5.058-2.793 6.142zm3.352-9.703C18.95.31 18.442 0 15.04 0c-3.199 0-4.57 2.271-5.941 5.161C1.583 20.387.923 22.451.771 22.709c-1.727 4.955 1.93 9.29 6.297 9.29 1.523 0 4.316-.413 7.922-4.439 4.164 4.593 7.16 4.439 7.922 4.439 4.418 0 8.074-4.387 6.297-9.29.051-.31-1.168-2.787-1.168-2.839z"/></symbol><symbol id="air-conditioner-icon" viewBox="0 0 64 32"><path fill="#52503b" style="fill:var(--color2,#52503b)" d="M59.013 0C61.714 0 64 2.24 64 5.013V26.88c0 2.88-2.286 5.12-4.987 5.12H4.987C2.286 32 .104 29.76 0 27.093V5.12C0 2.24 2.286 0 4.987 0h54.026zM30.234 21.76H18.805v6.507h11.429V21.76zm15.065 0H33.87v6.507h11.429V21.76zm-30.13 0H3.74v5.227c0 .747.519 1.28 1.247 1.28h10.182V21.76zm45.091 0H48.831v6.507h10.182c.727 0 1.351-.533 1.247-1.28V21.76zM59.013 3.733H4.987c-.727 0-1.247.533-1.247 1.28v13.12h56.623V5.12c0-.747-.623-1.387-1.351-1.387zm-6.13 5.12c1.039 0 1.87.853 1.87 1.92s-.831 1.92-1.87 1.92h-6.649c-1.039 0-1.87-.853-1.87-1.92s.831-1.92 1.87-1.92h6.649z"/></symbol><symbol id="bath-tub-icon" viewBox="0 0 34 32"><path fill="#52503b" style="fill:var(--color2,#52503b)" d="M33.136 14.481H6.539V3.676c0-.732.554-1.294 1.274-1.294h4.267v1.632c-1.164.169-2.106 1.182-2.106 2.42V8.91a1 1 0 0 0 .997 1.013h3.934a1 1 0 0 0 .997-1.013V6.434a2.46 2.46 0 0 0-1.829-2.364V1.369a1 1 0 0 0-.997-1.013H7.812c-1.773 0-3.214 1.463-3.214 3.264v10.805H.996c-.554 0-.997.45-.997 1.013s.443 1.013.997 1.013h1.33v4.502c0 3.32 2.438 6.078 5.597 6.528l-1.219 2.757a.974.974 0 0 0 .499 1.294c.111.056.277.113.388.113.388 0 .72-.225.887-.563l1.552-3.489h15.626l1.552 3.489c.166.394.499.563.887.563.111 0 .277 0 .388-.113a.974.974 0 0 0 .499-1.294l-1.385-3.095a6.678 6.678 0 0 0 4.211-6.19v-4.502h1.33a1 1 0 0 0 .997-1.013c0-.506-.443-.957-.997-.957zM13.908 7.953h-1.995V6.434a.5.5 0 0 1 .499-.506h.997a.5.5 0 0 1 .499.506v1.519zm15.959 12.999c0 2.532-2.05 4.671-4.599 4.671H8.866c-2.494 0-4.599-2.082-4.599-4.671V16.45h25.6v4.502z"/></symbol><symbol id="bed" viewBox="0 0 23 32"><path fill="#52503b" style="fill:var(--color2,#52503b)" d="M22.68 22.909v-.104L19.617 9.974V2.805C19.617 1.247 18.392 0 16.86 0H6.037C4.505 0 3.28 1.247 3.28 2.805v7.169L.217 22.805c0 .052-.051.156-.051.208v8.052c0 .519.408.935.919.935s.919-.416.919-.935V29.61c.204-.571 3.267-1.974 9.495-1.974s9.291 1.455 9.496 1.974v1.455c0 .519.408.935.919.935s.919-.416.919-.935v-8c-.102-.052-.153-.104-.153-.156zM4.863 11.013h13.12l2.655 11.117H2.209l2.655-11.117zm.205-8.208c0-.519.408-.987.97-.987h10.823c.511 0 .97.416.97.987v6.39H5.068v-6.39zm6.381 23.013c-2.859 0-7.096.364-9.495 1.558v-3.429h18.94v3.429c-2.348-1.195-6.586-1.558-9.444-1.558z"/></symbol><symbol id="bed-icon" viewBox="0 0 23 32"><path fill="#52503b" style="fill:var(--color2,#52503b)" d="M22.68 22.909v-.104L19.617 9.974V2.805C19.617 1.247 18.392 0 16.86 0H6.037C4.505 0 3.28 1.247 3.28 2.805v7.169L.217 22.805c0 .052-.051.156-.051.208v8.052c0 .519.408.935.919.935s.919-.416.919-.935V29.61c.204-.571 3.267-1.974 9.495-1.974s9.291 1.455 9.496 1.974v1.455c0 .519.408.935.919.935s.919-.416.919-.935v-8c-.102-.052-.153-.104-.153-.156zM4.863 11.013h13.12l2.655 11.117H2.209l2.655-11.117zm.205-8.208c0-.519.408-.987.97-.987h10.823c.511 0 .97.416.97.987v6.39H5.068v-6.39zm6.381 23.013c-2.859 0-7.096.364-9.495 1.558v-3.429h18.94v3.429c-2.348-1.195-6.586-1.558-9.444-1.558z"/></symbol><symbol id="bread-icon" viewBox="0 0 72 32"><path fill="#52503b" style="fill:var(--color2,#52503b)" d="M36.058 1C15.922 1 0 9.468 0 20.113c0 .968.117 2.056.468 3.145.702 2.177 2.341 3.871 4.566 4.597C11.005 29.791 22.829 31 35.941 31s24.936-1.21 30.907-3.145a7.138 7.138 0 0 0 4.566-4.476l.117-.242c.234-1.089.469-2.056.469-3.024C72.116 9.347 56.195 1 36.058 1zm31.726 20.927v.121a2.628 2.628 0 0 1-1.873 1.815c-5.619 1.814-17.326 2.903-29.853 2.903s-24.234-1.21-29.736-2.903c-.937-.363-1.639-.968-1.873-1.815-.234-.605-.234-1.331-.234-1.935 0-4.234 4.097-8.226 10.536-11.008 1.171 5.202 4.8 8.952 9.132 8.952 1.171 0 2.107-.968 2.107-2.177s-.937-2.177-2.107-2.177c-2.459 0-4.683-2.54-5.268-6.169a57.218 57.218 0 0 1 11.824-2.298c.703 5.927 4.215 12.702 9.366 12.702 1.171 0 2.107-.968 2.107-2.177s-.937-2.177-2.107-2.177c-2.224 0-4.683-4.234-5.268-8.71h1.522c3.512 0 7.024.242 10.185.847.234 6.653 4.449 12.097 9.483 12.097 1.171 0 2.107-.968 2.107-2.177s-.937-2.177-2.107-2.177c-2.693 0-4.917-3.145-5.385-7.016 10.302 2.54 17.561 7.621 17.561 13.306.117.968 0 1.573-.117 2.177z"/></symbol><symbol id="briefcase-icon" viewBox="0 0 34 32"><path fill="#52503b" style="fill:var(--color2,#52503b)" d="M29.592 6.263h-5.885V4.332A3.868 3.868 0 0 0 19.857.47h-5.83c-2.145 0-3.85 1.765-3.85 3.862v1.931H4.292c-2.365 0-4.29 1.931-4.29 4.303v5.406c0 .552.44.993.99.993h.495v10.482a4.067 4.067 0 0 0 4.07 4.082h22.772a4.067 4.067 0 0 0 4.07-4.082V16.965h.495c.55 0 .99-.441.99-.993v-5.406c0-2.372-1.925-4.303-4.29-4.303zM12.101 4.332c0-1.048.88-1.931 1.925-1.931h5.775c1.045 0 1.925.883 1.925 1.931v1.931H12.1V4.332zM1.98 10.566c0-1.269 1.045-2.372 2.365-2.372h25.302a2.386 2.386 0 0 1 2.365 2.372v4.468H1.98v-4.468zm28.492 16.826c0 1.214-.99 2.152-2.145 2.152H5.555a2.151 2.151 0 0 1-2.145-2.152V16.91h6.765v3.42c0 .552.44.993.99.993s.99-.441.99-.993v-3.42h9.681v3.42c0 .552.44.993.99.993s.99-.441.99-.993v-3.42h6.765v10.482h-.11z"/></symbol><symbol id="circle-icon" viewBox="0 0 32 32"><path fill="none" stroke="#52503b" style="stroke:var(--color2,#52503b)" stroke-width="1.067" d="M.533 16C.533 7.458 7.458.533 16 .533S31.467 7.458 31.467 16c0 8.542-6.925 15.467-15.467 15.467S.533 24.542.533 16z"/></symbol><symbol id="coffee-maker-icon" viewBox="0 0 32 32"><path fill="#52503b" style="fill:var(--color2,#52503b)" d="M28.187 0H9.421C7.639 0 6.223 1.403 6.223 3.169v2.493c0 1.455.944 2.649 2.306 3.013v2.078c0 .519.419.935.944.935s.943-.416.943-.935V8.831h10.746c.734 0 1.363.623 1.363 1.351v11.636c0 .727-.629 1.351-1.363 1.351H12.67a5.915 5.915 0 0 0 2.306-4.675.936.936 0 0 0-.944-.935H3.81a.936.936 0 0 0-.944.935c0 1.87.891 3.584 2.306 4.675h-1.31c-1.782 0-3.198 1.403-3.198 3.169v2.494c0 1.766 1.415 3.169 3.198 3.169h24.27c1.782 0 3.198-1.403 3.198-3.169V3.17c.052-1.714-1.415-3.169-3.145-3.169zM12.985 19.377c-.419 1.87-2.097 3.221-4.089 3.221s-3.669-1.403-4.089-3.221h8.177zm16.565 9.454c0 .727-.629 1.351-1.363 1.351H3.864c-.734 0-1.363-.623-1.363-1.351v-2.494c0-.727.629-1.351 1.363-1.351h17.194c1.782 0 3.198-1.403 3.198-3.169V10.181c0-1.766-1.415-3.169-3.198-3.169H9.421c-.734 0-1.363-.623-1.363-1.351V3.167c0-.727.629-1.351 1.363-1.351h18.714c.734 0 1.363.623 1.363 1.351v25.662h.052z"/></symbol><symbol id="cutlery-icon" viewBox="0 0 27 32"><path fill="#52503b" style="fill:var(--color2,#52503b)" d="M20.99 0c3.073 0 5.625 2.498 5.677 5.672v11.187c0 .937-.729 1.665-1.667 1.665h-1.094v11.083c0 1.301-1.094 2.393-2.396 2.393H20c-1.302 0-2.396-1.093-2.396-2.393V1.666c0-.937.729-1.665 1.667-1.665h1.719zM5.625.052c.521 0 .938.416.938.937V8.95H9.48V1.041c0-.52.417-.937.938-.937s.885.416.937.885v13.32c0 .78-.573 1.353-1.354 1.353H8.803v13.893c0 1.301-1.094 2.393-2.396 2.393H4.949c-1.302 0-2.396-1.093-2.396-2.393V15.61H1.355c-.781 0-1.354-.572-1.354-1.353V.989c0-.468.365-.937.885-.937s.938.416.938.937v7.909h2.865V.989c0-.52.417-.937.938-.937zm16.458 18.472h-2.656v11.083c0 .312.26.572.573.572h1.51c.313 0 .573-.312.573-.624V18.524zM6.979 15.662H4.375v13.945c0 .312.26.572.573.572h1.458c.313 0 .573-.26.573-.572V15.662zM20.938 1.821h-1.563v14.881h5.417V5.671a3.844 3.844 0 0 0-3.854-3.85zM9.531 10.719H1.823v3.122h7.708v-3.122z"/></symbol><symbol id="door-icon" viewBox="0 0 23 32"><path fill="#52503b" style="fill:var(--color2,#52503b)" d="M19.852 0c1.593 0 2.93 1.301 2.981 2.966v26.016c0 1.665-1.336 3.018-2.981 3.018H3.148C1.503 32 .167 30.647.167 28.982V2.966C.167 1.301 1.503 0 3.097 0h16.756zm-.051 1.769H3.097c-.668 0-1.182.572-1.182 1.197v26.016c0 .676.565 1.197 1.182 1.197h16.704c.668 0 1.182-.572 1.182-1.197V2.966c0-.676-.565-1.197-1.182-1.197zm-2.724 12.124c.925 0 1.748.78 1.748 1.769s-.771 1.769-1.748 1.769-1.748-.78-1.748-1.769.771-1.769 1.748-1.769z"/></symbol><symbol id="forest-icon" viewBox="0 0 41 32"><path fill="#52503b" style="fill:var(--color2,#52503b)" d="m26.449 8.401.304.011c1.399.105 2.542.936 3.103 2.226l7.814 18.488h2.271c.668 0 1.202.461 1.202 1.119s-.534 1.184-1.202 1.184H1.203c-.668 0-1.202-.461-1.202-1.119s.534-1.184 1.202-1.184h1.469l6.813-16.448c.534-1.382 1.803-2.237 3.34-2.237 1.536.066 2.805.855 3.406 2.237l3.072 7.171 3.807-9.211c.534-1.382 1.803-2.237 3.34-2.237zm0 2.368-.066.002c-.253.015-.833.13-1.137.787L20.504 22.94l2.672 6.25h2.204v-1.579c-1.336-.592-2.271-2.171-2.271-4.145 0-2.5 1.536-4.408 3.406-4.408s3.406 1.974 3.406 4.408c0 1.974-.868 3.553-2.204 4.145v1.579h7.414L27.65 11.557c-.267-.724-1.002-.79-1.202-.79zm-13.625 2.04c-.2 0-.868.066-1.202.79L5.143 29.192h15.495l-6.612-15.593c-.267-.724-1.002-.79-1.202-.79zm13.692 8.487c-.401 0-1.069.79-1.069 2.105s.601 2.105 1.069 2.105 1.069-.79 1.069-2.105c0-1.316-.668-2.105-1.069-2.105zM35.199.571c2.338 0 4.208 1.842 4.208 4.145s-1.937 4.145-4.208 4.145-4.208-1.842-4.208-4.145S32.861.571 35.199.571zm0 2.369c-1.002 0-1.87.79-1.87 1.842s.801 1.842 1.87 1.842 1.87-.79 1.87-1.842-.868-1.842-1.87-1.842z"/></symbol><symbol id="glass-icon" viewBox="0 0 21 32"><path fill="#52503b" style="fill:var(--color2,#52503b)" d="M17.989 21.316a9.803 9.803 0 0 0 2.661-7.313l-.851-11.151c-.106-1.608-1.49-2.853-3.139-2.853H4.688c-1.649 0-3.033 1.245-3.139 2.853L.698 14.003c-.213 2.697.745 5.342 2.66 7.313 1.65 1.763 3.938 2.852 6.385 3.06v5.757h-4.15c-.532 0-.958.415-.958.934s.426.933.958.933h10.163c.532 0 .958-.415.958-.933s-.426-.934-.958-.934h-4.15v-5.757c2.448-.207 4.736-1.297 6.385-3.06zM4.687 1.815h11.972c.639 0 1.224.519 1.277 1.141l.372 4.668H3.09l.372-4.668c0-.622.585-1.141 1.224-1.141zM2.611 14.107l.319-4.616h15.484l.319 4.616c.16 2.23-.585 4.305-2.128 5.964-1.543 1.608-3.671 2.541-5.959 2.541s-4.363-.882-5.959-2.541c-1.49-1.608-2.235-3.734-2.075-5.964z"/></symbol><symbol id="hanger-icon" viewBox="0 0 27 32"><path fill="#52503b" style="fill:var(--color2,#52503b)" d="m25.113 21.351-9.424-4.935c.104-.312 0-.727-.311-.935-.363-.312-.932-.26-1.294.104-.104.156-.518.26-.984.156-.414-.104-.673-.416-.725-.883-.052-.675.259-1.143 1.036-1.455.518-.208.88-.727.828-1.299V8.727c1.968-.416 3.418-2.182 3.418-4.312 0-2.442-1.968-4.416-4.401-4.416S8.855 1.973 8.855 4.415a4.398 4.398 0 0 0 3.521 4.312l.052 3.065c-1.294.675-2.019 1.818-1.864 3.221.052.519.207.935.466 1.351l-9.476 4.987C.777 21.715.26 22.442.052 23.273v.052C0 23.533 0 23.741 0 23.948v5.143A2.9 2.9 0 0 0 2.9 32h20.867a2.9 2.9 0 0 0 2.9-2.909v-5.143c0-1.143-.621-2.13-1.553-2.597zM10.719 4.416c0-1.455 1.139-2.597 2.589-2.597s2.589 1.143 2.589 2.597-1.139 2.597-2.589 2.597a2.568 2.568 0 0 1-2.589-2.597zm2.019 13.142.052-.052c.259.052.466.104.725.104.155 0 .311 0 .466-.052l9.527 4.987H3.159l9.579-4.987zm11.029 12.624H2.848a1.095 1.095 0 0 1-1.087-1.091v-4.675h23.094v4.675c0 .571-.518 1.091-1.087 1.091z"/></symbol><symbol id="instagram-icon" viewBox="0 0 32 32"><path fill="#fff" style="fill:var(--color1,#fff)" d="M24.038 0C28.422 0 32 3.533 32 7.924v16.101C32 28.416 28.472 32 24.088 32H7.962C3.578 32 0 28.467 0 24.076V7.925A7.9 7.9 0 0 1 7.912.001h16.126zm0 1.767H7.912c-3.376 0-6.148 2.776-6.148 6.158v16.151c0 3.432 2.772 6.208 6.148 6.208h16.176c3.376 0 6.148-2.776 6.148-6.208V7.975a6.199 6.199 0 0 0-6.198-6.208zM15.975 8.58c4.082 0 7.408 3.331 7.408 7.42s-3.326 7.42-7.408 7.42c-4.082 0-7.408-3.331-7.408-7.42s3.326-7.42 7.408-7.42zm0 1.767c-3.124 0-5.644 2.524-5.644 5.653s2.52 5.653 5.644 5.653 5.644-2.524 5.644-5.653-2.52-5.653-5.644-5.653zm8.113-5.401c1.058 0 1.915.858 1.915 1.918a1.916 1.916 0 1 1-3.83 0c0-1.06.857-1.918 1.915-1.918z"/></symbol><symbol id="pizza-icon" viewBox="0 0 32 32"><path fill="#52503b" style="fill:var(--color2,#52503b)" d="M31.878 18.375c-1.145-3.64-3.748-7.592-7.236-11.077C21.206 3.814 17.25 1.266 13.606.122c-1.301-.416-2.759.26-3.227 1.56L.176 28.463c-.364.988-.156 2.028.573 2.756.521.52 1.145.78 1.822.78.312 0 .625-.052.937-.156l15.669-5.98c.052 0 .052 0 .104-.052l1.874-.728 9.11-3.484a2.583 2.583 0 0 0 1.614-3.224zM2.883 30.076c-.416.156-.729-.104-.833-.156-.104-.104-.364-.364-.156-.832l2.186-5.72c.521 1.144 1.614 1.924 2.967 1.924 1.77 0 3.228-1.456 3.228-3.224s-1.458-3.224-3.228-3.224c-.468 0-.937.104-1.353.312l4.06-10.713c.677.416 1.353.832 2.03 1.352a3.177 3.177 0 0 0-1.353 2.6 3.242 3.242 0 0 0 3.227 3.224 3.204 3.204 0 0 0 2.967-1.976c2.499 2.34 4.945 5.148 7.028 8.58l-1.249.468c0-1.768-1.458-3.224-3.228-3.224s-3.227 1.456-3.227 3.224c0 .832.312 1.56.833 2.132L2.883 30.075zm2.707-8.009c0-.78.625-1.404 1.406-1.404s1.406.624 1.406 1.404c0 .78-.625 1.404-1.406 1.404s-1.406-.624-1.406-1.404zm9.474-9.776v.104c0 .78-.625 1.404-1.405 1.404s-1.405-.624-1.405-1.404c0-.728.521-1.3 1.249-1.404.521.416 1.041.832 1.562 1.3zm3.748 11.753c-.625-.156-1.093-.728-1.093-1.352 0-.78.625-1.404 1.405-1.404s1.405.624 1.405 1.404c0 .312-.104.572-.26.78l-1.458.572zm10.88-4.161-4.321 1.664c-2.551-4.316-5.726-7.748-8.797-10.401-.052 0-.052-.052-.104-.052a31.476 31.476 0 0 0-2.186-1.716l-.052-.052a56.058 56.058 0 0 0-3.852-2.6l1.666-4.42a.783.783 0 0 1 .729-.52c.104 0 .156 0 .26.052 3.332 1.04 7.08 3.536 10.307 6.76s5.726 7.02 6.767 10.349c.156.364-.052.78-.417.936z"/></symbol><symbol id="star-icon" viewBox="0 0 32 32"><path fill="#52503b" style="fill:var(--color2,#52503b)" d="m31.276 11.537-9.991-1.546L16.759.497a.85.85 0 0 0-1.546 0l-4.526 9.55-9.936 1.49c-.718.11-.994 1.049-.442 1.546l7.231 7.452-1.711 10.433c-.11.718.607 1.325 1.27.883l8.998-4.913 8.942 4.913c.607.331 1.38-.221 1.214-.883l-1.711-10.433 7.231-7.452c.442-.497.221-1.435-.497-1.546z"/></symbol><symbol id="star-outline-icon" viewBox="0 0 32 32"><path fill="#52503b" style="fill:var(--color2,#52503b)" d="M31.879 12.053c-.213-.64-.747-1.12-1.387-1.227l-8.907-1.387-4-8.427c-.32-.64-.907-1.013-1.6-1.013s-1.28.373-1.547 1.013l-4 8.48-8.96 1.44c-.64.107-1.173.587-1.387 1.227s-.053 1.387.427 1.867l6.453 6.613-1.493 9.227c-.107.693.16 1.387.747 1.813.32.213.64.32.96.32.267 0 .587-.053.8-.213l8-4.373 7.947 4.32a1.71 1.71 0 0 0 1.813-.107c.587-.427.853-1.12.747-1.813l-1.493-9.28 6.453-6.613c.48-.48.64-1.227.427-1.867zm-1.226 1.12-6.4 6.613c-.213.213-.32.587-.267.907l1.493 9.28c.053.373-.107.64-.32.747-.107.053-.373.213-.693.053l-8-4.32a1.02 1.02 0 0 0-.96 0l-8 4.373c-.32.16-.587.053-.693-.053-.16-.107-.373-.427-.32-.747l1.547-9.227c.053-.32-.053-.693-.267-.907L1.32 13.279a.817.817 0 0 1-.213-.8c.107-.267.267-.427.533-.48l8.96-1.44c.32-.053.64-.267.747-.587l4-8.48c.16-.267.373-.427.64-.427s.48.16.587.427l4 8.48c.16.32.427.533.747.587l8.907 1.387c.267.053.48.213.533.48.16.16.16.533-.107.747z"/></symbol><symbol id="stove-icon" viewBox="0 0 32 32"><path fill="#52503b" style="fill:var(--color2,#52503b)" d="M29.455 0C30.806 0 31.949 1.093 32 2.446v27.057a2.497 2.497 0 0 1-2.494 2.498H2.493a2.497 2.497 0 0 1-2.494-2.498V2.446A2.441 2.441 0 0 1 2.441 0h27.013zm0 1.769H2.442a.687.687 0 0 0-.675.676v27.057c0 .364.312.676.675.676h27.013a.687.687 0 0 0 .675-.676V2.445a.688.688 0 0 0-.675-.676zm-9.507 24.559c.519 0 .935.416.935.937s-.416.937-.935.937h-.779c-.519 0-.935-.416-.935-.937s.416-.937.935-.937h.779zm4.831 0c.519 0 .935.416.935.937s-.416.937-.935.937H24c-.519 0-.935-.416-.935-.937s.416-.937.935-.937h.779zm-15.376-9.99c2.182 0 4 1.821 4 4.006s-1.818 4.006-4 4.006-4-1.821-4-4.006 1.818-4.006 4-4.006zm13.091 0c2.234 0 4 1.821 4 4.006s-1.818 4.006-4 4.006-4-1.821-4-4.006 1.818-4.006 4-4.006zM9.403 18.159c-1.195 0-2.182.989-2.182 2.185s.987 2.185 2.182 2.185c1.195 0 2.182-.989 2.182-2.185s-.987-2.185-2.182-2.185zm13.091 0c-1.195 0-2.182.989-2.182 2.185s.987 2.185 2.182 2.185c1.195 0 2.182-.989 2.182-2.185s-.987-2.185-2.182-2.185zM9.403 4.735c2.182 0 4 1.769 4 4.006 0 2.185-1.818 4.007-4 4.007s-4-1.821-4-4.007 1.818-4.006 4-4.006zm13.091 0c2.234 0 4 1.769 4 4.006 0 2.185-1.818 4.007-4 4.007s-4-1.821-4-4.007c0-2.185 1.818-4.006 4-4.006zM9.403 6.556c-1.195 0-2.182.989-2.182 2.185s.987 2.185 2.182 2.185c1.195 0 2.182-.989 2.182-2.185s-.987-2.185-2.182-2.185zm13.091 0c-1.195 0-2.182.989-2.182 2.185s.987 2.185 2.182 2.185c1.195 0 2.182-.989 2.182-2.185s-.987-2.185-2.182-2.185z"/></symbol><symbol id="trees-icon" viewBox="0 0 38 32"><path fill="#52503b" style="fill:var(--color2,#52503b)" d="m31.054 9.755.208.011c.476.052.893.286 1.166.659l3.622 4.813c.375.487.437 1.157.125 1.706a2.124 2.124 0 0 1-.749.731l2.748 4.569c.312.548.312 1.158-.063 1.706-.25.548-.812.853-1.436.853h-4.496v5.3c0 .609-.5 1.097-1.124 1.097s-1.124-.487-1.124-1.097v-5.3h-4.559c-.562 0-1.124-.366-1.436-.853s-.312-1.158 0-1.645l2.748-4.63c-.312-.122-.562-.426-.749-.731a1.544 1.544 0 0 1 .125-1.706l3.622-4.813c.312-.426.812-.67 1.374-.67zM10.322.8c.562 0 1.062.244 1.374.67l5.87 7.676c.375.487.437 1.158.125 1.706s-.874.914-1.561.914l4.434 7.615a1.563 1.563 0 0 1 0 1.645c-.25.487-.812.792-1.436.792h-7.619v8.224c0 .609-.5 1.097-1.124 1.097s-1.124-.487-1.124-1.097v-8.224H1.705c-.624 0-1.187-.366-1.499-.914-.312-.487-.25-1.158.062-1.645l4.871-7.493h-.562c-.624 0-1.187-.366-1.499-.914s-.25-1.218.125-1.706L8.948 1.47C9.26 1.044 9.76.8 10.322.8zm20.67 11.392-2.81 3.716c.25.122.5.366.625.609a1.563 1.563 0 0 1 0 1.645l-2.623 4.447h9.617l-2.623-4.447a1.563 1.563 0 0 1 0-1.645c.125-.244.375-.487.625-.609l-2.81-3.716zm-20.67-8.894L5.514 9.695h.437c.624 0 1.249.366 1.499.853s.25 1.157-.062 1.645L2.58 19.686h15.612l-4.434-7.554a1.563 1.563 0 0 1 0-1.645c.312-.426.812-.792 1.374-.792l-4.808-6.397z"/></symbol><symbol id="tripadvisor-icon" viewBox="0 0 32 32"><path d="M30.681 12.709c.375-1.609 1.567-3.221 1.567-3.221h-5.349c-3.001-1.94-6.641-2.968-10.684-2.968-4.187 0-7.971 1.04-10.952 3.001H.248s1.18 1.581 1.56 3.181a7.948 7.948 0 0 0-1.556 4.743 8.02 8.02 0 0 0 8.016 8.011c2.521 0 4.761-1.18 6.241-3.005l1.7 2.555 1.721-2.581a7.85 7.85 0 0 0 2.892 2.3l.048.02a7.89 7.89 0 0 0 3.352.734c.995 0 1.947-.181 2.826-.512l-.055.018c4.141-1.539 6.261-6.161 4.741-10.301a7.778 7.778 0 0 0-1.094-1.999l.014.019.027.007zm-4.228 10.763a6.232 6.232 0 0 1-2.221.402 6.335 6.335 0 0 1-5.308-2.871l-.015-.024a6.049 6.049 0 0 1-.657-1.253l-.014-.042a6.174 6.174 0 0 1-.344-1.597l-.002-.023a6.376 6.376 0 0 1 .556-3.31l-.016.04c1.038-2.217 3.251-3.726 5.816-3.726a6.405 6.405 0 0 1 5.992 4.141l.015.044a6.29 6.29 0 0 1 .393 2.21 6.414 6.414 0 0 1-4.129 5.993l-.044.015h-.023zm-12.89-2.445c-1.166 1.708-3.102 2.815-5.297 2.817a6.41 6.41 0 0 1-6.401-6.395v-.001c0-3.521 2.875-6.403 6.401-6.403s6.397 2.881 6.397 6.403c0 .219-.04.419-.064.639a6.39 6.39 0 0 1-1.051 2.985l.015-.023v-.021zM4.2 17.364c0 2.188 1.781 3.961 3.961 3.961s3.957-1.773 3.957-3.961a3.961 3.961 0 0 0-7.916-.006v.006h-.003zm16.064 0v.001a3.957 3.957 0 1 0 3.957-3.954 3.964 3.964 0 0 0-3.961 3.951v.001h.004zm-14.696 0a2.59 2.59 0 0 1 2.581-2.591c1.419 0 2.599 1.164 2.599 2.591a2.6 2.6 0 1 1-5.2 0h.02zm16.044 0a2.594 2.594 0 0 1 2.599-2.591 2.593 2.593 0 0 1 2.583 2.591 2.601 2.601 0 1 1-5.202 0h.02zM16.208 7.92c2.881 0 5.481.519 7.763 1.549a7.993 7.993 0 0 0-2.597.498l.055-.018a7.913 7.913 0 0 0-4.48 4.118l-.02.049a7.778 7.778 0 0 0-.72 2.726l-.002.027c-.314-4.115-3.686-7.347-7.833-7.437h-.009c2.281-.979 4.923-1.512 7.783-1.512h.059z"/></symbol><symbol id="wi-fi-icon" viewBox="0 0 32 32"><path fill="#52503b" style="fill:var(--color2,#52503b)" d="M27.974 23.396c2.248 0 4.026 1.804 4.026 3.969s-1.83 3.969-4.026 3.969c-2.196 0-4.026-1.804-4.026-3.969s1.83-3.969 4.026-3.969zM29.438.667c.523 0 .941.412.941.928s-.418.928-.941.928c-15.216 0-27.608 12.164-27.555 27.213 0 .515-.418.928-.941.928s-.941-.412-.941-.928C.001 13.707 13.177.719 29.439.667zm-.052 8.401a.93.93 0 0 1 .941.928.875.875 0 0 1-.889.876c-10.562 0-19.137 8.453-19.085 18.812 0 .515-.418.928-.941.928s-.941-.412-.941-.928c0-11.339 9.359-20.616 20.915-20.616zm0 8.298c.523 0 .941.412.941.928s-.366.876-.889.876c-5.856 0-10.667 4.69-10.667 10.514 0 .515-.418.928-.941.928s-.941-.412-.941-.928c0-6.803 5.595-12.318 12.497-12.318zm-1.412 7.886c-1.203 0-2.196.979-2.196 2.165s.993 2.165 2.196 2.165c1.203 0 2.196-.979 2.196-2.165s-.994-2.165-2.196-2.165z"/></symbol><symbol id="close" viewBox="0 0 32 32"><path d="M32 3.223 28.777 0 16 12.777 3.223 0 0 3.223 12.777 16 0 28.777 3.223 32 16 19.223 28.777 32 32 28.777 19.223 16 32 3.223z"/></symbol><symbol id="envelope" viewBox="0 0 43 32"><path d="M38.667 0H4C1.795 0 0 1.795 0 4v24c0 2.205 1.795 4 4 4h34.667c2.205 0 4-1.795 4-4V4c0-2.205-1.795-4-4-4zm0 2.667c.181 0 .355.037.512.104L21.334 18.238 3.489 2.771c.151-.065.327-.104.512-.104h34.667zm0 26.666H4A1.333 1.333 0 0 1 2.667 28V5.587l17.792 15.421c.233.203.539.327.875.327s.642-.124.876-.328l-.002.001L40 5.587V28c0 .736-.597 1.333-1.333 1.333z"/></symbol><symbol id="location" viewBox="0 0 32 32"><path d="M16.002 17.746c3.309 0 6-2.692 6-6s-2.691-6-6-6-6 2.691-6 6 2.691 6 6 6zm0-11c2.758 0 5 2.242 5 5s-2.242 5-5 5-5-2.242-5-5 2.242-5 5-5zM16 0C9.382 0 4 5.316 4 12.001c0 7 6.001 14.161 10.376 19.194.016.02.718.805 1.586.805h.077c.867 0 1.57-.785 1.586-.805 4.377-5.033 10.377-12.193 10.377-19.194A11.971 11.971 0 0 0 16 0zm.117 29.883c-.021.02-.082.064-.135.098-.01-.027-.084-.086-.129-.133C12.188 25.631 6 18.514 6 12.001 6 6.487 10.487 2 16 2c5.516 0 10.002 4.487 10.002 10.002 0 6.512-6.188 13.629-9.885 17.881z"/></symbol><symbol id="smartphone" viewBox="0 0 20 32"><path d="M17 0H3C1.346 0 0 1.346 0 3v26c0 1.654 1.346 3 3 3h14c1.654 0 3-1.346 3-3V3c0-1.654-1.346-3-3-3zM3 2h14a1 1 0 0 1 1 1v21H2V3a1 1 0 0 1 1-1zm14 28H3a1 1 0 0 1-1-1v-3h16v3a1 1 0 0 1-1 1z"/><path d="M4.708 27.478a.889.889 0 0 1 .001 1.319l-.001.001a1.048 1.048 0 0 1-1.417 0l.001.001a.889.889 0 0 1-.001-1.319l.001-.001a1.048 1.048 0 0 1 1.417 0l-.001-.001z"/></symbol><symbol id="arrow-right2" viewBox="0 0 32 32"><path d="m19.414 27.414 10-10a2 2 0 0 0 0-2.828l-10-10a2 2 0 1 0-2.828 2.828L23.172 14H4a2 2 0 1 0 0 4h19.172l-6.586 6.586c-.39.39-.586.902-.586 1.414s.195 1.024.586 1.414a2 2 0 0 0 2.828 0z"/></symbol><symbol id="arrow-left2" viewBox="0 0 32 32"><path d="m12.586 27.414-10-10a2 2 0 0 1 0-2.828l10-10a2 2 0 1 1 2.828 2.828L8.828 14H28a2 2 0 1 1 0 4H8.828l6.586 6.586c.39.39.586.902.586 1.414s-.195 1.024-.586 1.414a2 2 0 0 1-2.828 0z"/></symbol><symbol id="icon-close-btn" viewBox="0 0 32 32"><path d="m16 14.115 6.6-6.6L24.485 9.4l-6.6 6.6 6.6 6.6-1.885 1.885-6.6-6.6-6.6 6.6L7.515 22.6l6.6-6.6-6.6-6.6L9.4 7.515l6.6 6.6z"/></symbol><symbol id="icon-checkmark" viewBox="0 0 32 32"><path fill="#fff" d="M27 4 12 19l-7-7-5 5 12 12L32 9z"/></symbol><symbol id="icon-booking-com" viewBox="0 0 33 32"><path d="M32.72 6.144A6.148 6.148 0 0 0 26.575 0H6.145A6.148 6.148 0 0 0 0 6.144v19.712A6.148 6.148 0 0 0 6.145 32h20.43a6.148 6.148 0 0 0 6.145-6.144z"/><path d="M.001 19.88h16.342V32H.001z"/><path d="m14.87 21.181-2.635-.003v-3.151c0-.673.261-1.024.837-1.104h1.798c1.282 0 2.112.808 2.112 2.117 0 1.344-.808 2.139-2.112 2.141zm-2.635-8.499v-.829c0-.726.307-1.071.98-1.116h1.349c1.156 0 1.849.692 1.849 1.851 0 .882-.475 1.912-1.807 1.912h-2.372zm6.001 3.144-.476-.268.416-.356c.484-.416 1.295-1.352 1.295-2.966 0-2.473-1.917-4.067-4.885-4.067l-3.772-.001a1.653 1.653 0 0 0-1.593 1.633v14.03h5.432c3.298 0 5.427-1.795 5.427-4.576 0-1.497-.688-2.777-1.844-3.428zM21.494 21.893c0-1.072.864-1.939 1.929-1.939a1.939 1.939 0 0 1 0 3.878 1.934 1.934 0 0 1-1.929-1.939z"/></symbol><symbol id="icon-checkmark2" viewBox="0 0 32 32"><path d="M12.42 28.678-.013 16.44l6.168-6.071 6.265 6.167L25.846 3.322l6.168 6.071L12.42 28.678zM3.372 16.441l9.048 8.905L28.628 9.393l-2.782-2.739L12.42 19.868l-6.265-6.167-2.782 2.739z"/></symbol><symbol id="icon-logo-sheshory" viewBox="0 0 32 32"><path d="M21.387 21.556c-2.288-.353-4.052-2.319-4.052-4.705 0-1.115.821-3.008 1.742-4.784L14.64 8.344l-6.749 5.662v8.952h13.496v-1.402zM2.321 24.269C5.125 28.897 10.194 32 16 32s10.875-3.103 13.679-7.731H2.321z"/><path d="M6.581 13.701c0-.194.086-.378.234-.502l7.404-6.211c.02-.017.045-.022.067-.036a.62.62 0 0 1 .59-.063.63.63 0 0 1 .122.066c.02.013.044.018.062.034l4.649 3.901a57.224 57.224 0 0 1 2.001-3.362l-.149.248c.241-.376.863-.376 1.103 0 .433.676 4.227 6.678 4.227 9.077 0 2.434-1.837 4.427-4.194 4.719v1.388h7.693a15.9 15.9 0 0 0 1.609-6.958c0-8.837-7.163-16-16-16s-16 7.164-16 16c0 2.497.589 4.852 1.609 6.958H6.58v-9.258z"/><path d="M22.113 20.319a3.472 3.472 0 0 0 3.468-3.468c0-1.474-2.156-5.329-3.468-7.484-1.311 2.155-3.467 6.01-3.467 7.484a3.471 3.471 0 0 0 3.467 3.468z"/></symbol><symbol id="icon-chevron-down" viewBox="0 0 32 32"><path stroke-linejoin="round" stroke-linecap="round" stroke-width="2.667" d="m8 12 8 8 8-8"/></symbol></defs></svg>