<svg viewBox="575 316.426 320.428 112.648" width="5000" height="1757.78" xmlns="http://www.w3.org/2000/svg" xmlns:xlink="http://www.w3.org/1999/xlink" preserveAspectRatio="none"><style>.aIptOCySncolors-0{fill:#e08631;fill-opacity:1}</style><svg width="108.718" height="108.718" x="575" y="318.391" preserveAspectRatio="none" viewBox="20 20 160 160"><path d="M126.936 127.782c-11.442-1.765-20.259-11.594-20.259-23.524 0-5.577 4.107-15.039 8.712-23.918L93.202 61.725 59.458 90.033v44.758h67.478v-7.009zM31.606 141.344C45.626 164.484 70.969 180 100 180c29.032 0 54.375-15.517 68.394-38.657H31.606z" data-color="1" class="aIptOCySncolors-0"/><path d="M52.906 88.503c0-.969.429-1.888 1.171-2.512l37.019-31.055c.102-.085.227-.112.335-.182.18-.118.356-.221.551-.3.206-.084.41-.139.626-.179.191-.035.374-.059.567-.06.232-.002.45.025.675.072.185.038.358.084.535.154.217.085.412.197.609.33.101.066.218.09.312.169l23.244 19.503a312.185 312.185 0 0 1 9.257-15.571c1.203-1.881 4.313-1.881 5.516 0 2.163 3.382 21.136 33.39 21.136 45.385 0 12.171-9.184 22.134-20.97 23.595v6.938h38.465C177.057 124.26 180 112.487 180 100c0-44.183-35.817-80-80-80-44.182 0-80 35.818-80 80 0 12.487 2.943 24.26 8.045 34.791h24.86V88.503z" data-color="1" class="aIptOCySncolors-0"/><path d="M130.565 121.596c9.56 0 17.341-7.778 17.341-17.338 0-7.372-10.782-26.643-17.341-37.419-6.553 10.776-17.335 30.05-17.335 37.419 0 9.56 7.775 17.338 17.335 17.338z" data-color="1" class="aIptOCySncolors-0"/></svg><svg width="182.735" height="76.029" x="712.693" y="334.735" preserveAspectRatio="none" viewBox="1.48 -28.48 170.56 70.96"><g style="fill:#fff;fill-opacity:1"><path id="id-D6z1nYkh14" d="M4.2-7.08H1.48q.08 1.72.9 3.12.82 1.4 2.24 2.38Q6.04-.6 7.96-.06t4.2.54q2.32 0 4.18-.56 1.86-.56 3.18-1.6t2.04-2.52q.72-1.48.72-3.28 0-2.48-1.24-4.06-1.24-1.58-3.1-2.64t-4.04-1.78q-2.18-.72-4.04-1.52-1.86-.8-3.1-1.84t-1.24-2.76q0-.96.42-1.8.42-.84 1.24-1.46.82-.62 2.02-1 1.2-.38 2.76-.38 2.6 0 4.42 1.1 1.82 1.1 2.14 3.46h2.72q-.24-1.48-1.08-2.66-.84-1.18-2.12-2-1.28-.82-2.9-1.24-1.62-.42-3.38-.42-1.84 0-3.5.48t-2.92 1.4q-1.26.92-2 2.32t-.74 3.2q0 2.36 1.2 3.8t3.02 2.4q1.82.96 3.94 1.64 2.12.68 3.94 1.54 1.82.86 3.02 2.1 1.2 1.24 1.2 3.32 0 2.6-1.9 3.8-1.9 1.2-5.06 1.2-2.52 0-4.04-.66T5.6-3.52q-.8-.92-1.08-1.9-.28-.98-.32-1.66ZM31.6-28h-3.4V0h3.4v-11.56q0-.8.12-1.96t.66-2.24q.54-1.08 1.62-1.86t3-.78q1.36 0 2.18.5.82.5 1.26 1.34.44.84.58 1.96.14 1.12.14 2.32V0h3.4v-13.2q0-2.24-.64-3.66t-1.6-2.22q-.96-.8-2.1-1.08-1.14-.28-2.18-.28-1.4 0-2.94.54t-2.9 2.06l-.44.56h-.16V-28ZM53.52-9.12h15.2v-.84q0-2.68-.76-4.64-.76-1.96-2.06-3.24-1.3-1.28-3.02-1.92-1.72-.64-3.64-.64-2.04 0-3.76.7-1.72.7-3 2.04t-2 3.24q-.72 1.9-.72 4.3 0 2 .62 3.9t1.88 3.4q1.26 1.5 3.2 2.4 1.94.9 4.58.9 2.56 0 4.72-.9 2.16-.9 3.76-2.58l-1.28-1.28q-.84.72-1.58 1.32-.74.6-1.5 1t-1.58.62q-.82.22-1.82.22-1.12 0-2.38-.34-1.26-.34-2.34-1.22-1.08-.88-1.8-2.44t-.72-4Zm11.72-1.6H53.52q0-1.6.34-3.1t1.04-2.66q.7-1.16 1.78-1.86 1.08-.7 2.56-.7 2.84 0 4.42 2.22t1.58 6.1Zm19.16-4.72h2.28q0-1.08-.56-2-.56-.92-1.54-1.58t-2.28-1.04q-1.3-.38-2.78-.38-1.4 0-2.62.36-1.22.36-2.12 1.08-.9.72-1.42 1.78-.52 1.06-.52 2.46 0 1.92.88 3.04t2.2 1.8q1.32.68 2.86 1.1 1.54.42 2.86.92 1.32.5 2.2 1.26.88.76.88 2.08 0 .56-.18 1.16-.18.6-.66 1.1-.48.5-1.32.84-.84.34-2.12.34-1.6 0-2.7-.5t-1.8-1.2q-.7-.7-1-1.42-.3-.72-.3-1.2h-2.6q0 1.12.52 2.18t1.58 1.9q1.06.84 2.6 1.34 1.54.5 3.58.5 3.68 0 5.54-1.62 1.86-1.62 1.86-4.26 0-1.92-.9-3.08-.9-1.16-2.26-1.86-1.36-.7-2.94-1.14-1.58-.44-2.94-.92-1.36-.48-2.26-1.16-.9-.68-.9-1.92 0-.52.2-1.1.2-.58.68-1.08.48-.5 1.28-.84.8-.34 2-.34t2.08.34q.88.34 1.48.84.6.5.88 1.1.28.6.28 1.12ZM96.52-28h-3.4V0h3.4v-11.56q0-.8.12-1.96t.66-2.24q.54-1.08 1.62-1.86t3-.78q1.36 0 2.18.5.82.5 1.26 1.34.44.84.58 1.96.14 1.12.14 2.32V0h3.4v-13.2q0-2.24-.64-3.66t-1.6-2.22q-.96-.8-2.1-1.08-1.14-.28-2.18-.28-1.4 0-2.94.54t-2.9 2.06l-.44.56h-.16V-28ZM135.4-9.96q0 2.08-.72 3.98t-2.06 3.34q-1.34 1.44-3.24 2.28-1.9.84-4.26.84-2.4 0-4.34-.86t-3.28-2.3q-1.34-1.44-2.08-3.34t-.74-3.94q0-2.08.74-3.98t2.08-3.34q1.34-1.44 3.28-2.3 1.94-.86 4.34-.86 2.36 0 4.26.86t3.24 2.3q1.34 1.44 2.06 3.34t.72 3.98Zm-3.8 0q0-2.8-.6-4.54-.6-1.74-1.56-2.7-.96-.96-2.12-1.3-1.16-.34-2.24-.34-1.08 0-2.24.34-1.16.34-2.14 1.3-.98.96-1.6 2.7-.62 1.74-.62 4.54 0 2.76.62 4.5.62 1.74 1.6 2.7.98.96 2.14 1.3 1.16.34 2.24.34 1.08 0 2.24-.34 1.16-.34 2.12-1.3.96-.96 1.56-2.7.6-1.74.6-4.5ZM144-20h-3.4V0h3.4v-12.08q0-1.64.38-2.78t.98-1.86q.6-.72 1.32-1.04.72-.32 1.4-.32.92 0 1.7.6.78.6 1.14 1.12l1.36-2.48q-.36-.48-.86-.8-.5-.32-1-.5t-.92-.24q-.42-.06-.62-.06-1.68 0-2.8.92-1.12.92-1.84 2.72H144V-20Zm19.8 15.32h-.16L156.72-20h-3.64l8.96 19.76-2.12 5.2q-.36.92-.94 1.48-.58.56-1.34.56-.72 0-1.38-.42-.66-.42-1.02-1.22l-1.76 3.32q.76.68 1.68 1 .92.32 1.72.32 1.12 0 1.96-.56.84-.56 1.48-1.46.64-.9 1.12-2 .48-1.1.92-2.18l9.68-23.8h-1.96L163.8-4.68ZM29.04 37.92l-1.2-1.08q-4.08 3.84-9.68 3.84-3.12 0-5.52-1.08-2.4-1.08-4-2.88-1.6-1.8-2.42-4.16-.82-2.36-.82-4.92 0-2.72.86-4.98.86-2.26 2.42-3.9 1.56-1.64 3.7-2.56 2.14-.92 4.66-.92 1.72 0 3.14.4 1.42.4 2.52 1.04t1.8 1.46q.7.82.98 1.66h2.96q-.6-1.36-1.54-2.52-.94-1.16-2.34-2-1.4-.84-3.28-1.32-1.88-.48-4.28-.48-3.48 0-6.34 1t-4.9 2.86q-2.04 1.86-3.16 4.48t-1.12 5.86q0 2.8.9 5.46t2.78 4.72q1.88 2.06 4.8 3.32 2.92 1.26 6.96 1.26 2.56 0 4.58-.48t3.52-1.18q1.5-.7 2.5-1.5t1.52-1.4ZM36.44 14h-3.4v28h3.4V30.44q0-.8.12-1.96t.66-2.24q.54-1.08 1.62-1.86t3-.78q1.36 0 2.18.5.82.5 1.26 1.34.44.84.58 1.96.14 1.12.14 2.32V42h3.4V28.8q0-2.24-.64-3.66t-1.6-2.22q-.96-.8-2.1-1.08-1.14-.28-2.18-.28-1.4 0-2.94.54t-2.9 2.06l-.44.56h-.16V14Zm26.72 7.56q2.92 0 4.52.82 1.6.82 2.34 2.14.74 1.32.86 3.04t.12 3.52V42h-3.24v-1.96q-1.16 1.12-2.96 1.78-1.8.66-3.6.66-1.72 0-3.04-.6t-2.2-1.56q-.88-.96-1.32-2.16-.44-1.2-.44-2.44 0-1.28.48-2.56t1.44-2.3q.96-1.02 2.36-1.66 1.4-.64 3.2-.64 1.8 0 3.42.7 1.62.7 2.66 1.98v-1.72q0-3.28-.98-4.88t-3.58-1.6q-1.12 0-1.96.28-.84.28-1.5.78t-1.22 1.24q-.56.74-1.12 1.66l-2.08-2.08q.56-.6 1.18-1.2.62-.6 1.52-1.08.9-.48 2.14-.78 1.24-.3 3-.3Zm4.6 15.6v-3.08q-.2-.48-.58-1.12-.38-.64-.98-1.24t-1.44-1.02q-.84-.42-2-.42-1.16 0-2.12.46-.96.46-1.62 1.2-.66.74-1.02 1.74t-.36 2.08q0 1.28.46 2.22.46.94 1.18 1.6.72.66 1.6.98.88.32 1.68.32.76 0 1.54-.28t1.48-.78q.7-.5 1.26-1.18.56-.68.92-1.48ZM81.6 42V14h-3.4v28h3.4Zm9.76-9.12h15.2v-.84q0-2.68-.76-4.64-.76-1.96-2.06-3.24-1.3-1.28-3.02-1.92-1.72-.64-3.64-.64-2.04 0-3.76.7-1.72.7-3 2.04t-2 3.24q-.72 1.9-.72 4.3 0 2 .62 3.9t1.88 3.4q1.26 1.5 3.2 2.4 1.94.9 4.58.9 2.56 0 4.72-.9 2.16-.9 3.76-2.58l-1.28-1.28q-.84.72-1.58 1.32-.74.6-1.5 1t-1.58.62q-.82.22-1.82.22-1.12 0-2.38-.34-1.26-.34-2.34-1.22-1.08-.88-1.8-2.44t-.72-4Zm11.72-1.6H91.36q0-1.6.34-3.1t1.04-2.66q.7-1.16 1.78-1.86 1.08-.7 2.56-.7 2.84 0 4.42 2.22t1.58 6.1Zm10.16-7.68h-3.48V22h3.48v-6.16h3.4V22h4.84v1.6h-4.84v13.28q0 .48.04 1.1.04.62.24 1.16.2.54.62.9t1.18.36q.96 0 1.6-.72.64-.72 1.04-1.56l1.88 1.92Q121.28 42 118.8 42q-1.04 0-2.04-.36t-1.78-1.1q-.78-.74-1.26-1.9t-.48-2.72V23.6Z"/></g></svg><svg width="1.837" height="112.648" x="696.518" y="316.426" preserveAspectRatio="none" viewBox="0 0 1.837 112.648"><defs><rect x="0" y="0" width="1.837" height="112.648" rx="0" ry="0" id="id-tBXipXk0b"/></defs><use style="stroke-width:0;stroke:#e5bdb5;stroke-opacity:1;fill:#f3f3f3;fill-opacity:1" xlink:href="#id-tBXipXk0b"/></svg></svg>