<svg aria-hidden="true" style="position: absolute; width: 0; height: 0; overflow: hidden;" version="1.1" xmlns="http://www.w3.org/2000/svg" xmlns:xlink="http://www.w3.org/1999/xlink">
<defs>
<symbol id="airbnb-icon" viewBox="0 0 30 32">
<path fill="#fff" style="fill: var(--color1, #fff)" d="M15.040 24.361c-1.777-2.271-2.793-4.232-3.148-5.987-1.574-6.348 7.922-6.348 6.348 0-0.406 1.755-1.473 3.819-3.199 5.987zM24.688 29.574c-2.945 1.29-5.891-0.774-8.379-3.561 7.313-9.29 3.301-14.348-1.27-14.348-3.859 0-5.992 3.252-5.129 7.174 0.508 2.116 1.777 4.439 3.859 7.122-2.285 2.529-4.215 3.768-5.992 3.922-3.504 0.568-6.246-2.89-4.926-6.451 1.066-2.787 7.871-16.516 8.176-17.238 1.066-2.168 1.777-4.077 4.164-4.077 2.285 0 3.098 1.806 4.215 4.284 2.59 5.006 6.297 12.645 8.074 17.032 0.762 2.323-0.203 5.058-2.793 6.142zM28.040 19.871c-9.090-19.561-9.598-19.871-13-19.871-3.199 0-4.57 2.271-5.941 5.161-7.516 15.226-8.176 17.29-8.328 17.548-1.727 4.955 1.93 9.29 6.297 9.29 1.523 0 4.316-0.413 7.922-4.439 4.164 4.593 7.16 4.439 7.922 4.439 4.418 0 8.074-4.387 6.297-9.29 0.051-0.31-1.168-2.787-1.168-2.839z"></path>
</symbol>
<symbol id="air-conditioner-icon" viewBox="0 0 64 32">
<path fill="#52503b" style="fill: var(--color2, #52503b)" d="M59.013 0c2.701 0 4.987 2.24 4.987 5.013v21.867c0 2.88-2.286 5.12-4.987 5.12h-54.026c-2.701 0-4.883-2.24-4.987-4.907v-21.973c0-2.88 2.286-5.12 4.987-5.12h54.026zM30.234 21.76h-11.429v6.507h11.429v-6.507zM45.299 21.76h-11.429v6.507h11.429v-6.507zM15.169 21.76h-11.429v5.227c0 0.747 0.519 1.28 1.247 1.28h10.182v-6.507zM60.26 21.76h-11.429v6.507h10.182c0.727 0 1.351-0.533 1.247-1.28v-5.227zM59.013 3.733h-54.026c-0.727 0-1.247 0.533-1.247 1.28v13.12h56.623v-13.013c0-0.747-0.623-1.387-1.351-1.387zM52.883 8.853c1.039 0 1.87 0.853 1.87 1.92s-0.831 1.92-1.87 1.92h-6.649c-1.039 0-1.87-0.853-1.87-1.92s0.831-1.92 1.87-1.92h6.649z"></path>
</symbol>
<symbol id="bath-tub-icon" viewBox="0 0 34 32">
<path fill="#52503b" style="fill: var(--color2, #52503b)" d="M33.136 14.481h-26.597v-10.805c0-0.732 0.554-1.294 1.274-1.294h4.267v1.632c-1.164 0.169-2.106 1.182-2.106 2.42v2.476c0 0.563 0.443 1.013 0.997 1.013h3.934c0.554 0 0.997-0.45 0.997-1.013v-2.476c0-1.125-0.776-2.082-1.829-2.364v-2.701c0-0.563-0.443-1.013-0.997-1.013h-5.264c-1.773 0-3.214 1.463-3.214 3.264v10.805h-3.602c-0.554 0-0.997 0.45-0.997 1.013s0.443 1.013 0.997 1.013h1.33v4.502c0 3.32 2.438 6.078 5.597 6.528l-1.219 2.757c-0.222 0.506 0 1.069 0.499 1.294 0.111 0.056 0.277 0.113 0.388 0.113 0.388 0 0.72-0.225 0.887-0.563l1.552-3.489h15.238c0.111 0 0.222 0 0.388 0l1.552 3.489c0.166 0.394 0.499 0.563 0.887 0.563 0.111 0 0.277 0 0.388-0.113 0.499-0.225 0.72-0.788 0.499-1.294l-1.385-3.095c2.438-0.957 4.211-3.377 4.211-6.19v-4.502h1.33c0.554 0 0.997-0.45 0.997-1.013 0-0.506-0.443-0.957-0.997-0.957zM13.908 7.953h-1.995v-1.519c0-0.281 0.222-0.506 0.499-0.506h0.997c0.277 0 0.499 0.225 0.499 0.506v1.519zM29.867 20.952c0 2.532-2.050 4.671-4.599 4.671h-16.402c-2.494 0-4.599-2.082-4.599-4.671v-4.502h25.6v4.502z"></path>
</symbol>
<symbol id="bed" viewBox="0 0 23 32">
<path fill="#52503b" style="fill: var(--color2, #52503b)" d="M22.68 22.909v-0.052c0 0 0 0 0-0.052l-3.063-12.831v-7.169c0-1.558-1.225-2.805-2.757-2.805h-10.823c-1.532 0-2.757 1.247-2.757 2.805v7.169l-3.063 12.831c0 0.052-0.051 0.156-0.051 0.208v8.052c0 0.519 0.408 0.935 0.919 0.935s0.919-0.416 0.919-0.935v-1.455c0.204-0.571 3.267-1.974 9.495-1.974s9.291 1.455 9.496 1.974v1.455c0 0.519 0.408 0.935 0.919 0.935s0.919-0.416 0.919-0.935v-8c-0.102-0.052-0.153-0.104-0.153-0.156zM4.863 11.013h13.12l2.655 11.117h-18.429l2.655-11.117zM5.068 2.805c0-0.519 0.408-0.987 0.97-0.987h10.823c0.511 0 0.97 0.416 0.97 0.987v6.39h-12.763v-6.39zM11.449 25.818c-2.859 0-7.096 0.364-9.495 1.558v-3.429h18.94v3.429c-2.348-1.195-6.586-1.558-9.444-1.558z"></path>
</symbol>
<symbol id="bed-icon" viewBox="0 0 23 32">
<path fill="#52503b" style="fill: var(--color2, #52503b)" d="M22.68 22.909v-0.052c0 0 0 0 0-0.052l-3.063-12.831v-7.169c0-1.558-1.225-2.805-2.757-2.805h-10.823c-1.532 0-2.757 1.247-2.757 2.805v7.169l-3.063 12.831c0 0.052-0.051 0.156-0.051 0.208v8.052c0 0.519 0.408 0.935 0.919 0.935s0.919-0.416 0.919-0.935v-1.455c0.204-0.571 3.267-1.974 9.495-1.974s9.291 1.455 9.496 1.974v1.455c0 0.519 0.408 0.935 0.919 0.935s0.919-0.416 0.919-0.935v-8c-0.102-0.052-0.153-0.104-0.153-0.156zM4.863 11.013h13.12l2.655 11.117h-18.429l2.655-11.117zM5.068 2.805c0-0.519 0.408-0.987 0.97-0.987h10.823c0.511 0 0.97 0.416 0.97 0.987v6.39h-12.763v-6.39zM11.449 25.818c-2.859 0-7.096 0.364-9.495 1.558v-3.429h18.94v3.429c-2.348-1.195-6.586-1.558-9.444-1.558z"></path>
</symbol>
<symbol id="bread-icon" viewBox="0 0 72 32">
<path fill="#52503b" style="fill: var(--color2, #52503b)" d="M36.058 1c-20.136 0-36.058 8.468-36.058 19.113 0 0.968 0.117 2.056 0.468 3.145 0.702 2.177 2.341 3.871 4.566 4.597 5.971 1.936 17.795 3.145 30.907 3.145s24.936-1.21 30.907-3.145c2.224-0.726 3.863-2.419 4.566-4.476l0.117-0.242c0.234-1.089 0.469-2.056 0.469-3.024 0.116-10.766-15.805-19.113-35.942-19.113zM67.784 21.927v0.121c-0.234 0.847-0.937 1.573-1.873 1.815-5.619 1.814-17.326 2.903-29.853 2.903s-24.234-1.21-29.736-2.903c-0.937-0.363-1.639-0.968-1.873-1.815-0.234-0.605-0.234-1.331-0.234-1.935 0-4.234 4.097-8.226 10.536-11.008 1.171 5.202 4.8 8.952 9.132 8.952 1.171 0 2.107-0.968 2.107-2.177s-0.937-2.177-2.107-2.177c-2.459 0-4.683-2.54-5.268-6.169 3.512-1.089 7.61-1.935 11.824-2.298 0.703 5.927 4.215 12.702 9.366 12.702 1.171 0 2.107-0.968 2.107-2.177s-0.937-2.177-2.107-2.177c-2.224 0-4.683-4.234-5.268-8.71 0.468 0 1.054 0 1.522 0 3.512 0 7.024 0.242 10.185 0.847 0.234 6.653 4.449 12.097 9.483 12.097 1.171 0 2.107-0.968 2.107-2.177s-0.937-2.177-2.107-2.177c-2.693 0-4.917-3.145-5.385-7.016 10.302 2.54 17.561 7.621 17.561 13.306 0.117 0.968 0 1.573-0.117 2.177z"></path>
</symbol>
<symbol id="briefcase-icon" viewBox="0 0 34 32">
<path fill="#52503b" style="fill: var(--color2, #52503b)" d="M29.592 6.263h-5.885v-1.931c0-2.151-1.76-3.862-3.85-3.862h-5.83c-2.145 0-3.85 1.765-3.85 3.862v1.931h-5.885c-2.365 0-4.29 1.931-4.29 4.303v5.406c0 0.552 0.44 0.993 0.99 0.993h0.495v10.482c0 2.262 1.815 4.082 4.070 4.082h22.772c2.255 0 4.070-1.821 4.070-4.082v-10.482h0.495c0.55 0 0.99-0.441 0.99-0.993v-5.406c0-2.372-1.925-4.303-4.29-4.303zM12.101 4.332c0-1.048 0.88-1.931 1.925-1.931h5.775c1.045 0 1.925 0.883 1.925 1.931v1.931h-9.626v-1.931zM1.98 10.566c0-1.269 1.045-2.372 2.365-2.372h25.302c1.265 0 2.365 1.048 2.365 2.372v4.468h-30.032v-4.468zM30.472 27.392c0 1.214-0.99 2.152-2.145 2.152h-22.772c-1.21 0-2.145-0.993-2.145-2.152v-10.482h6.765v3.42c0 0.552 0.44 0.993 0.99 0.993s0.99-0.441 0.99-0.993v-3.42h9.681v3.42c0 0.552 0.44 0.993 0.99 0.993s0.99-0.441 0.99-0.993v-3.42h6.765v10.482h-0.11z"></path>
</symbol>
<symbol id="circle-icon" viewBox="0 0 32 32">
<path fill="none" stroke="#52503b" style="stroke: var(--color2, #52503b)" stroke-linejoin="miter" stroke-linecap="butt" stroke-miterlimit="4" stroke-width="1.0667" d="M0.533 16c0-8.542 6.925-15.467 15.467-15.467s15.467 6.925 15.467 15.467c0 8.542-6.925 15.467-15.467 15.467s-15.467-6.925-15.467-15.467z"></path>
</symbol>
<symbol id="coffee-maker-icon" viewBox="0 0 32 32">
<path fill="#52503b" style="fill: var(--color2, #52503b)" d="M28.187 0h-18.766c-1.782 0-3.198 1.403-3.198 3.169v2.493c0 1.455 0.944 2.649 2.306 3.013v2.078c0 0.519 0.419 0.935 0.944 0.935s0.943-0.416 0.943-0.935v-1.922h10.746c0.734 0 1.363 0.623 1.363 1.351v11.636c0 0.727-0.629 1.351-1.363 1.351h-8.492c1.415-1.091 2.306-2.805 2.306-4.675 0-0.519-0.419-0.935-0.944-0.935h-10.222c-0.524 0-0.944 0.416-0.944 0.935 0 1.87 0.891 3.584 2.306 4.675h-1.31c-1.782 0-3.198 1.403-3.198 3.169v2.494c0 1.766 1.415 3.169 3.198 3.169h24.27c1.782 0 3.198-1.403 3.198-3.169v-25.662c0.052-1.714-1.415-3.169-3.145-3.169zM12.985 19.377c-0.419 1.87-2.097 3.221-4.089 3.221s-3.669-1.403-4.089-3.221h8.177zM29.55 28.831c0 0.727-0.629 1.351-1.363 1.351h-24.323c-0.734 0-1.363-0.623-1.363-1.351v-2.494c0-0.727 0.629-1.351 1.363-1.351h17.194c1.782 0 3.198-1.403 3.198-3.169v-11.636c0-1.766-1.415-3.169-3.198-3.169h-11.637c-0.734 0-1.363-0.623-1.363-1.351v-2.494c0-0.727 0.629-1.351 1.363-1.351h18.714c0.734 0 1.363 0.623 1.363 1.351v25.662h0.052z"></path>
</symbol>
<symbol id="cutlery-icon" viewBox="0 0 27 32">
<path fill="#52503b" style="fill: var(--color2, #52503b)" d="M20.99 0c3.073 0 5.625 2.498 5.677 5.672v11.187c0 0.937-0.729 1.665-1.667 1.665h-1.094v11.083c0 1.301-1.094 2.393-2.396 2.393h-1.51c-1.302 0-2.396-1.093-2.396-2.393v-27.941c0-0.937 0.729-1.665 1.667-1.665h1.719zM5.625 0.052c0.521 0 0.938 0.416 0.938 0.937v7.961h2.917v-7.909c0-0.52 0.417-0.937 0.938-0.937s0.885 0.416 0.937 0.885v13.32c0 0.78-0.573 1.353-1.354 1.353h-1.198v13.893c0 1.301-1.094 2.393-2.396 2.393h-1.458c-1.302 0-2.396-1.093-2.396-2.393v-13.945h-1.198c-0.781 0-1.354-0.572-1.354-1.353v-13.268c0-0.468 0.365-0.937 0.885-0.937s0.938 0.416 0.938 0.937v7.909h2.865v-7.909c0-0.52 0.417-0.937 0.938-0.937zM22.083 18.524h-2.656v11.083c0 0.312 0.26 0.572 0.573 0.572h1.51c0.313 0 0.573-0.312 0.573-0.624v-11.031zM6.979 15.662h-2.604v13.945c0 0.312 0.26 0.572 0.573 0.572h1.458c0.313 0 0.573-0.26 0.573-0.572v-13.945zM20.938 1.821h-1.563v14.881h5.417v-11.031c0-2.133-1.719-3.85-3.854-3.85zM9.531 10.719h-7.708v3.122h7.708v-3.122z"></path>
</symbol>
<symbol id="door-icon" viewBox="0 0 23 32">
<path fill="#52503b" style="fill: var(--color2, #52503b)" d="M19.852 0c1.593 0 2.93 1.301 2.981 2.966v26.016c0 1.665-1.336 3.018-2.981 3.018h-16.704c-1.645 0-2.981-1.353-2.981-3.018v-26.016c0-1.665 1.336-2.966 2.93-2.966h16.756zM19.801 1.769h-16.704c-0.668 0-1.182 0.572-1.182 1.197v26.016c0 0.676 0.565 1.197 1.182 1.197h16.704c0.668 0 1.182-0.572 1.182-1.197v-26.016c0-0.676-0.565-1.197-1.182-1.197zM17.077 13.893c0.925 0 1.748 0.78 1.748 1.769s-0.771 1.769-1.748 1.769c-0.977 0-1.748-0.78-1.748-1.769s0.771-1.769 1.748-1.769z"></path>
</symbol>
<symbol id="forest-icon" viewBox="0 0 41 32">
<path fill="#52503b" style="fill: var(--color2, #52503b)" d="M26.449 8.401l0.304 0.011c1.399 0.105 2.542 0.936 3.103 2.226l7.814 18.488h2.271c0.668 0 1.202 0.461 1.202 1.119s-0.534 1.184-1.202 1.184h-38.738c-0.668 0-1.202-0.461-1.202-1.119s0.534-1.184 1.202-1.184h1.469l6.813-16.448c0.534-1.382 1.803-2.237 3.34-2.237 1.536 0.066 2.805 0.855 3.406 2.237l3.072 7.171 3.807-9.211c0.534-1.382 1.803-2.237 3.34-2.237zM26.449 10.769l-0.066 0.002c-0.253 0.015-0.833 0.13-1.137 0.787l-4.742 11.382 2.672 6.25h2.204v-1.579c-1.336-0.592-2.271-2.171-2.271-4.145 0-2.5 1.536-4.408 3.406-4.408s3.406 1.974 3.406 4.408c0 1.974-0.868 3.553-2.204 4.145v1.579h7.414l-7.481-17.633c-0.267-0.724-1.002-0.79-1.202-0.79zM12.824 12.809c-0.2 0-0.868 0.066-1.202 0.79l-6.479 15.593h15.495l-6.612-15.593c-0.267-0.724-1.002-0.79-1.202-0.79zM26.516 21.296c-0.401 0-1.069 0.79-1.069 2.105s0.601 2.105 1.069 2.105 1.069-0.79 1.069-2.105c0-1.316-0.668-2.105-1.069-2.105zM35.199 0.571c2.338 0 4.208 1.842 4.208 4.145s-1.937 4.145-4.208 4.145c-2.271 0-4.208-1.842-4.208-4.145s1.87-4.145 4.208-4.145zM35.199 2.94c-1.002 0-1.87 0.79-1.87 1.842s0.801 1.842 1.87 1.842c1.069 0 1.87-0.79 1.87-1.842s-0.868-1.842-1.87-1.842z"></path>
</symbol>
<symbol id="glass-icon" viewBox="0 0 21 32">
<path fill="#52503b" style="fill: var(--color2, #52503b)" d="M17.989 21.316c1.862-1.971 2.82-4.616 2.661-7.313l-0.851-11.151c-0.106-1.608-1.49-2.853-3.139-2.853h-11.972c-1.649 0-3.033 1.245-3.139 2.853l-0.851 11.151c-0.213 2.697 0.745 5.342 2.66 7.313 1.65 1.763 3.938 2.852 6.385 3.060v5.757h-4.15c-0.532 0-0.958 0.415-0.958 0.934s0.426 0.933 0.958 0.933h10.163c0.532 0 0.958-0.415 0.958-0.933s-0.426-0.934-0.958-0.934h-4.15v-5.757c2.448-0.207 4.736-1.297 6.385-3.060zM4.687 1.815h11.972c0.639 0 1.224 0.519 1.277 1.141l0.372 4.668h-15.218l0.372-4.668c0-0.622 0.585-1.141 1.224-1.141zM2.611 14.107l0.319-4.616h15.484l0.319 4.616c0.16 2.23-0.585 4.305-2.128 5.964-1.543 1.608-3.671 2.541-5.959 2.541s-4.363-0.882-5.959-2.541c-1.49-1.608-2.235-3.734-2.075-5.964z"></path>
</symbol>
<symbol id="hanger-icon" viewBox="0 0 27 32">
<path fill="#52503b" style="fill: var(--color2, #52503b)" d="M25.113 21.351l-9.424-4.935c0.104-0.312 0-0.727-0.311-0.935-0.363-0.312-0.932-0.26-1.294 0.104-0.104 0.156-0.518 0.26-0.984 0.156-0.414-0.104-0.673-0.416-0.725-0.883-0.052-0.675 0.259-1.143 1.036-1.455 0.518-0.208 0.88-0.727 0.828-1.299v-3.377c1.968-0.416 3.418-2.182 3.418-4.312 0-2.442-1.968-4.416-4.401-4.416s-4.401 1.974-4.401 4.416c0 2.13 1.502 3.896 3.521 4.312l0.052 3.065c-1.294 0.675-2.019 1.818-1.864 3.221 0.052 0.519 0.207 0.935 0.466 1.351l-9.476 4.987c-0.777 0.364-1.294 1.091-1.502 1.922 0 0 0 0 0 0.052-0.052 0.208-0.052 0.416-0.052 0.623v5.143c0 1.61 1.295 2.909 2.9 2.909h20.867c1.605 0 2.9-1.299 2.9-2.909v-5.143c0-1.143-0.621-2.13-1.553-2.597zM10.719 4.416c0-1.455 1.139-2.597 2.589-2.597s2.589 1.143 2.589 2.597-1.139 2.597-2.589 2.597c-1.45 0-2.589-1.143-2.589-2.597zM12.738 17.558l0.052-0.052c0.259 0.052 0.466 0.104 0.725 0.104 0.155 0 0.311 0 0.466-0.052l9.527 4.987h-20.349l9.579-4.987zM23.767 30.182h-20.919c-0.621 0-1.087-0.519-1.087-1.091v-4.675h23.094v4.675c0 0.571-0.518 1.091-1.087 1.091z"></path>
</symbol>
<symbol id="instagram-icon" viewBox="0 0 32 32">
<path fill="#fff" style="fill: var(--color1, #fff)" d="M24.038 0c4.384 0 7.962 3.533 7.962 7.924v16.101c0 4.391-3.528 7.975-7.912 7.975h-16.126c-4.384 0-7.962-3.533-7.962-7.924v-16.151c0-4.391 3.528-7.924 7.912-7.924h16.126zM24.038 1.767h-16.126c-3.376 0-6.148 2.776-6.148 6.158v16.151c0 3.432 2.772 6.208 6.148 6.208h16.176c3.376 0 6.148-2.776 6.148-6.208v-16.101c0-3.432-2.772-6.208-6.198-6.208zM15.975 8.58c4.082 0 7.408 3.331 7.408 7.42s-3.326 7.42-7.408 7.42c-4.082 0-7.408-3.331-7.408-7.42s3.326-7.42 7.408-7.42zM15.975 10.347c-3.124 0-5.644 2.524-5.644 5.653s2.52 5.653 5.644 5.653c3.124 0 5.644-2.524 5.644-5.653s-2.52-5.653-5.644-5.653zM24.088 4.946c1.058 0 1.915 0.858 1.915 1.918s-0.857 1.918-1.915 1.918c-1.058 0-1.915-0.858-1.915-1.918s0.857-1.918 1.915-1.918z"></path>
</symbol>
<symbol id="pizza-icon" viewBox="0 0 32 32">
<path fill="#52503b" style="fill: var(--color2, #52503b)" d="M31.878 18.375c-1.145-3.64-3.748-7.592-7.236-11.077-3.436-3.484-7.392-6.032-11.036-7.176-1.301-0.416-2.759 0.26-3.227 1.56l-10.203 26.781c-0.364 0.988-0.156 2.028 0.573 2.756 0.521 0.52 1.145 0.78 1.822 0.78 0.312 0 0.625-0.052 0.937-0.156l15.669-5.98c0.052 0 0.052 0 0.104-0.052l1.874-0.728 9.11-3.484c1.354-0.468 2.030-1.924 1.614-3.224zM2.883 30.076c-0.416 0.156-0.729-0.104-0.833-0.156-0.104-0.104-0.364-0.364-0.156-0.832l2.186-5.72c0.521 1.144 1.614 1.924 2.967 1.924 1.77 0 3.228-1.456 3.228-3.224s-1.458-3.224-3.228-3.224c-0.468 0-0.937 0.104-1.353 0.312l4.060-10.713c0.677 0.416 1.353 0.832 2.030 1.352-0.833 0.572-1.353 1.56-1.353 2.6 0 1.768 1.458 3.224 3.227 3.224 1.354 0 2.499-0.832 2.967-1.976 2.499 2.34 4.945 5.148 7.028 8.58l-1.249 0.468c0-1.768-1.458-3.224-3.228-3.224s-3.227 1.456-3.227 3.224c0 0.832 0.312 1.56 0.833 2.132l-13.899 5.252zM5.59 22.067c0-0.78 0.625-1.404 1.406-1.404s1.406 0.624 1.406 1.404c0 0.78-0.625 1.404-1.406 1.404s-1.406-0.624-1.406-1.404zM15.064 12.291c0 0.052 0 0.052 0 0.104 0 0.78-0.625 1.404-1.405 1.404s-1.405-0.624-1.405-1.404c0-0.728 0.521-1.3 1.249-1.404 0.521 0.416 1.041 0.832 1.562 1.3zM18.812 24.044c-0.625-0.156-1.093-0.728-1.093-1.352 0-0.78 0.625-1.404 1.405-1.404s1.405 0.624 1.405 1.404c0 0.312-0.104 0.572-0.26 0.78l-1.458 0.572zM29.692 19.883l-4.321 1.664c-2.551-4.316-5.726-7.748-8.797-10.401-0.052 0-0.052-0.052-0.104-0.052-0.729-0.624-1.457-1.196-2.186-1.716l-0.052-0.052c-1.353-0.988-2.655-1.872-3.852-2.6l1.666-4.42c0.104-0.312 0.417-0.52 0.729-0.52 0.104 0 0.156 0 0.26 0.052 3.332 1.040 7.080 3.536 10.307 6.76s5.726 7.020 6.767 10.349c0.156 0.364-0.052 0.78-0.417 0.936z"></path>
</symbol>
<symbol id="star-icon" viewBox="0 0 32 32">
<path fill="#52503b" style="fill: var(--color2, #52503b)" d="M31.276 11.537l-9.991-1.546-4.526-9.494c-0.331-0.662-1.214-0.662-1.546 0l-4.526 9.55-9.936 1.49c-0.718 0.11-0.994 1.049-0.442 1.546l7.231 7.452-1.711 10.433c-0.11 0.718 0.607 1.325 1.27 0.883l8.998-4.913 8.942 4.913c0.607 0.331 1.38-0.221 1.214-0.883l-1.711-10.433 7.231-7.452c0.442-0.497 0.221-1.435-0.497-1.546z"></path>
</symbol>
<symbol id="star-outline-icon" viewBox="0 0 32 32">
<path fill="#52503b" style="fill: var(--color2, #52503b)" d="M31.879 12.053c-0.213-0.64-0.747-1.12-1.387-1.227l-8.907-1.387-4-8.427c-0.32-0.64-0.907-1.013-1.6-1.013s-1.28 0.373-1.547 1.013l-4 8.48-8.96 1.44c-0.64 0.107-1.173 0.587-1.387 1.227s-0.053 1.387 0.427 1.867l6.453 6.613-1.493 9.227c-0.107 0.693 0.16 1.387 0.747 1.813 0.32 0.213 0.64 0.32 0.96 0.32 0.267 0 0.587-0.053 0.8-0.213l8-4.373 7.947 4.32c0.587 0.32 1.28 0.267 1.813-0.107 0.587-0.427 0.853-1.12 0.747-1.813l-1.493-9.28 6.453-6.613c0.48-0.48 0.64-1.227 0.427-1.867zM30.653 13.173l-6.4 6.613c-0.213 0.213-0.32 0.587-0.267 0.907l1.493 9.28c0.053 0.373-0.107 0.64-0.32 0.747-0.107 0.053-0.373 0.213-0.693 0.053l-8-4.32c-0.32-0.16-0.64-0.16-0.96 0l-8 4.373c-0.32 0.16-0.587 0.053-0.693-0.053-0.16-0.107-0.373-0.427-0.32-0.747l1.547-9.227c0.053-0.32-0.053-0.693-0.267-0.907l-6.453-6.613c-0.267-0.267-0.267-0.587-0.213-0.8 0.107-0.267 0.267-0.427 0.533-0.48l8.96-1.44c0.32-0.053 0.64-0.267 0.747-0.587l4-8.48c0.16-0.267 0.373-0.427 0.64-0.427s0.48 0.16 0.587 0.427l4 8.48c0.16 0.32 0.427 0.533 0.747 0.587l8.907 1.387c0.267 0.053 0.48 0.213 0.533 0.48 0.16 0.16 0.16 0.533-0.107 0.747z"></path>
</symbol>
<symbol id="stove-icon" viewBox="0 0 32 32">
<path fill="#52503b" style="fill: var(--color2, #52503b)" d="M29.455 0c1.351 0 2.494 1.093 2.545 2.446v27.057c0 1.405-1.143 2.498-2.494 2.498h-27.013c-1.403 0-2.494-1.145-2.494-2.498v-27.057c0-1.353 1.091-2.446 2.442-2.446h27.013zM29.455 1.769h-27.013c-0.364 0-0.675 0.312-0.675 0.676v27.057c0 0.364 0.312 0.676 0.675 0.676h27.013c0.364 0 0.675-0.312 0.675-0.676v-27.057c0-0.364-0.312-0.676-0.675-0.676zM19.948 26.328c0.519 0 0.935 0.416 0.935 0.937s-0.416 0.937-0.935 0.937h-0.779c-0.519 0-0.935-0.416-0.935-0.937s0.416-0.937 0.935-0.937h0.779zM24.779 26.328c0.519 0 0.935 0.416 0.935 0.937s-0.416 0.937-0.935 0.937h-0.779c-0.519 0-0.935-0.416-0.935-0.937s0.416-0.937 0.935-0.937h0.779zM9.403 16.338c2.182 0 4 1.821 4 4.006s-1.818 4.006-4 4.006c-2.182 0-4-1.821-4-4.006s1.818-4.006 4-4.006zM22.494 16.338c2.234 0 4 1.821 4 4.006s-1.818 4.006-4 4.006c-2.182 0-4-1.821-4-4.006s1.818-4.006 4-4.006zM9.403 18.159c-1.195 0-2.182 0.989-2.182 2.185s0.987 2.185 2.182 2.185c1.195 0 2.182-0.989 2.182-2.185s-0.987-2.185-2.182-2.185zM22.494 18.159c-1.195 0-2.182 0.989-2.182 2.185s0.987 2.185 2.182 2.185c1.195 0 2.182-0.989 2.182-2.185s-0.987-2.185-2.182-2.185zM9.403 4.735c2.182 0 4 1.769 4 4.006 0 2.185-1.818 4.007-4 4.007s-4-1.821-4-4.007 1.818-4.006 4-4.006zM22.494 4.735c2.234 0 4 1.769 4 4.006 0 2.185-1.818 4.007-4 4.007s-4-1.821-4-4.007c0-2.185 1.818-4.006 4-4.006zM9.403 6.556c-1.195 0-2.182 0.989-2.182 2.185s0.987 2.185 2.182 2.185c1.195 0 2.182-0.989 2.182-2.185s-0.987-2.185-2.182-2.185zM22.494 6.556c-1.195 0-2.182 0.989-2.182 2.185s0.987 2.185 2.182 2.185c1.195 0 2.182-0.989 2.182-2.185s-0.987-2.185-2.182-2.185z"></path>
</symbol>
<symbol id="trees-icon" viewBox="0 0 38 32">
<path fill="#52503b" style="fill: var(--color2, #52503b)" d="M31.054 9.755l0.208 0.011c0.476 0.052 0.893 0.286 1.166 0.659l3.622 4.813c0.375 0.487 0.437 1.157 0.125 1.706-0.187 0.305-0.437 0.548-0.749 0.731l2.748 4.569c0.312 0.548 0.312 1.158-0.063 1.706-0.25 0.548-0.812 0.853-1.436 0.853h-4.496v5.3c0 0.609-0.5 1.097-1.124 1.097s-1.124-0.487-1.124-1.097v-5.3h-4.559c-0.562 0-1.124-0.366-1.436-0.853s-0.312-1.158 0-1.645l2.748-4.63c-0.312-0.122-0.562-0.426-0.749-0.731-0.312-0.548-0.25-1.218 0.125-1.706l3.622-4.813c0.312-0.426 0.812-0.67 1.374-0.67zM10.322 0.8c0.562 0 1.062 0.244 1.374 0.67l5.87 7.676c0.375 0.487 0.437 1.158 0.125 1.706s-0.874 0.914-1.561 0.914l4.434 7.615c0.312 0.487 0.312 1.158 0 1.645-0.25 0.487-0.812 0.792-1.436 0.792h-7.619v8.224c0 0.609-0.5 1.097-1.124 1.097s-1.124-0.487-1.124-1.097v-8.224h-7.556c-0.624 0-1.187-0.366-1.499-0.914-0.312-0.487-0.25-1.158 0.062-1.645l4.871-7.493h-0.562c-0.624 0-1.187-0.366-1.499-0.914s-0.25-1.218 0.125-1.706l5.745-7.676c0.312-0.426 0.812-0.67 1.374-0.67zM30.992 12.192l-2.81 3.716c0.25 0.122 0.5 0.366 0.625 0.609 0.312 0.487 0.312 1.157 0 1.645l-2.623 4.447h9.617l-2.623-4.447c-0.312-0.487-0.312-1.158 0-1.645 0.125-0.244 0.375-0.487 0.625-0.609l-2.81-3.716zM10.322 3.298l-4.808 6.397h0.437c0.624 0 1.249 0.366 1.499 0.853s0.25 1.157-0.062 1.645l-4.808 7.493h15.612l-4.434-7.554c-0.312-0.487-0.312-1.157 0-1.645 0.312-0.426 0.812-0.792 1.374-0.792l-4.808-6.397z"></path>
</symbol>
<symbol id="tripadvisor-icon" viewBox="0 0 32 32">
<path d="M30.681 12.709c0.375-1.609 1.567-3.221 1.567-3.221h-5.349c-3.001-1.94-6.641-2.968-10.684-2.968-4.187 0-7.971 1.040-10.952 3.001h-5.015s1.18 1.581 1.56 3.181c-0.972 1.31-1.556 2.958-1.556 4.743 0 0 0 0 0 0v0c0.005 4.424 3.592 8.008 8.016 8.011h0c2.521 0 4.761-1.18 6.241-3.005l1.7 2.555 1.721-2.581c0.773 0.989 1.759 1.776 2.892 2.3l0.048 0.020c0.983 0.464 2.136 0.734 3.352 0.734 0.995 0 1.947-0.181 2.826-0.512l-0.055 0.018c4.141-1.539 6.261-6.161 4.741-10.301-0.283-0.756-0.648-1.411-1.094-1.999l0.014 0.019 0.027 0.007zM26.453 23.472c-0.66 0.254-1.423 0.402-2.221 0.402-2.221 0-4.176-1.142-5.308-2.871l-0.015-0.024c-0.257-0.373-0.483-0.8-0.657-1.253l-0.014-0.042c-0.174-0.475-0.297-1.025-0.344-1.597l-0.002-0.023c-0.020-0.188-0.031-0.407-0.031-0.628 0-0.958 0.21-1.866 0.587-2.682l-0.016 0.040c1.038-2.217 3.251-3.726 5.816-3.726 2.74 0 5.078 1.721 5.992 4.141l0.015 0.044c0.249 0.657 0.393 1.417 0.393 2.21 0 2.737-1.715 5.073-4.129 5.993l-0.044 0.015h-0.023zM13.563 21.027c-1.166 1.708-3.102 2.815-5.297 2.817h-0c-3.531-0.005-6.393-2.865-6.401-6.395v-0.001c0-3.521 2.875-6.403 6.401-6.403s6.397 2.881 6.397 6.403c0 0.219-0.040 0.419-0.064 0.639-0.102 1.113-0.475 2.123-1.051 2.985l0.015-0.023v-0.021zM4.2 17.364c0 2.188 1.781 3.961 3.961 3.961s3.957-1.773 3.957-3.961c-0.070-2.132-1.815-3.834-3.958-3.834s-3.888 1.702-3.958 3.828l-0 0.006h-0.003zM20.264 17.364c0 0 0 0.001 0 0.001 0 2.186 1.771 3.958 3.957 3.96h0c2.185 0 3.957-1.771 3.957-3.957s-1.771-3.957-3.957-3.957v0c-2.184 0.002-3.954 1.769-3.961 3.951v0.001h0.004zM5.568 17.364c0-1.428 1.159-2.591 2.581-2.591 1.419 0 2.599 1.164 2.599 2.591 0 1.436-1.164 2.6-2.6 2.6s-2.6-1.164-2.6-2.6h0.020zM21.612 17.364c0-1.428 1.159-2.591 2.599-2.591 1.421 0 2.583 1.164 2.583 2.591 0 1.436-1.164 2.601-2.601 2.601s-2.601-1.164-2.601-2.601v0h0.020zM16.208 7.92c2.881 0 5.481 0.519 7.763 1.549-0.918 0.023-1.788 0.197-2.597 0.498l0.055-0.018c-2.018 0.743-3.612 2.229-4.48 4.118l-0.020 0.049c-0.385 0.804-0.642 1.74-0.72 2.726l-0.002 0.027c-0.314-4.115-3.686-7.347-7.833-7.437l-0.009-0c2.281-0.979 4.923-1.512 7.783-1.512h0.059z"></path>
</symbol>
<symbol id="wi-fi-icon" viewBox="0 0 32 32">
<path fill="#52503b" style="fill: var(--color2, #52503b)" d="M27.974 23.396c2.248 0 4.026 1.804 4.026 3.969s-1.83 3.969-4.026 3.969c-2.196 0-4.026-1.804-4.026-3.969s1.83-3.969 4.026-3.969zM29.438 0.667c0.523 0 0.941 0.412 0.941 0.928s-0.418 0.928-0.941 0.928c-15.216 0-27.608 12.164-27.555 27.213 0 0.515-0.418 0.928-0.941 0.928s-0.941-0.412-0.941-0.928c0-16.029 13.176-29.017 29.438-29.069zM29.386 9.068c0.523 0 0.941 0.412 0.941 0.928 0 0.464-0.366 0.876-0.889 0.876-10.562 0-19.137 8.453-19.085 18.812 0 0.515-0.418 0.928-0.941 0.928s-0.941-0.412-0.941-0.928c0-11.339 9.359-20.616 20.915-20.616zM29.386 17.366c0.523 0 0.941 0.412 0.941 0.928s-0.366 0.876-0.889 0.876c-5.856 0-10.667 4.69-10.667 10.514 0 0.515-0.418 0.928-0.941 0.928s-0.941-0.412-0.941-0.928c0-6.803 5.595-12.318 12.497-12.318zM27.974 25.252c-1.203 0-2.196 0.979-2.196 2.165s0.993 2.165 2.196 2.165c1.203 0 2.196-0.979 2.196-2.165s-0.994-2.165-2.196-2.165z"></path>
</symbol>
<symbol id="close" viewBox="0 0 32 32">
<path d="M32 3.223l-3.223-3.223-12.777 12.777-12.777-12.777-3.223 3.223 12.777 12.777-12.777 12.777 3.223 3.223 12.777-12.777 12.777 12.777 3.223-3.223-12.777-12.777 12.777-12.777z"></path>
</symbol>
<symbol id="envelope" viewBox="0 0 43 32">
<path d="M38.667 0h-34.667c-2.205 0-4 1.795-4 4v24c0 2.205 1.795 4 4 4h34.667c2.205 0 4-1.795 4-4v-24c0-2.205-1.795-4-4-4zM38.667 2.667c0.181 0 0.355 0.037 0.512 0.104l-17.845 15.467-17.845-15.467c0.151-0.065 0.327-0.104 0.512-0.104h34.667zM38.667 29.333h-34.667c-0.736 0-1.333-0.597-1.333-1.333v0-22.413l17.792 15.421c0.233 0.203 0.539 0.327 0.875 0.327s0.642-0.124 0.876-0.328l-0.002 0.001 17.792-15.421v22.413c0 0.736-0.597 1.333-1.333 1.333v0z"></path>
</symbol>
<symbol id="location" viewBox="0 0 32 32">
<path d="M16.002 17.746c3.309 0 6-2.692 6-6s-2.691-6-6-6c-3.309 0-6 2.691-6 6s2.691 6 6 6zM16.002 6.746c2.758 0 5 2.242 5 5s-2.242 5-5 5c-2.758 0-5-2.242-5-5s2.242-5 5-5zM16 0c-6.618 0-12 5.316-12 12.001 0 7 6.001 14.161 10.376 19.194 0.016 0.020 0.718 0.805 1.586 0.805 0.002 0 0.073 0 0.077 0 0.867 0 1.57-0.785 1.586-0.805 4.377-5.033 10.377-12.193 10.377-19.194 0-6.685-5.383-12.001-12.002-12.001zM16.117 29.883c-0.021 0.020-0.082 0.064-0.135 0.098-0.010-0.027-0.084-0.086-0.129-0.133-3.665-4.217-9.853-11.334-9.853-17.847 0-5.514 4.487-10.001 10-10.001 5.516 0 10.002 4.487 10.002 10.002 0 6.512-6.188 13.629-9.885 17.881z"></path>
</symbol>
<symbol id="smartphone" viewBox="0 0 20 32">
<path d="M17 0h-14c-1.654 0-3 1.346-3 3v26c0 1.654 1.346 3 3 3h14c1.654 0 3-1.346 3-3v-26c0-1.654-1.346-3-3-3zM3 2h14c0.552 0 1 0.448 1 1v0 21h-16v-21c0-0.552 0.448-1 1-1v0zM17 30h-14c-0.552 0-1-0.448-1-1v0-3h16v3c0 0.552-0.448 1-1 1v0z"></path>
<path d="M4.708 27.478c0.18 0.163 0.293 0.399 0.293 0.66s-0.113 0.497-0.292 0.659l-0.001 0.001c-0.186 0.17-0.435 0.275-0.708 0.275s-0.522-0.104-0.709-0.275l0.001 0.001c-0.18-0.163-0.293-0.399-0.293-0.66s0.113-0.497 0.292-0.659l0.001-0.001c0.186-0.17 0.435-0.275 0.708-0.275s0.522 0.104 0.709 0.275l-0.001-0.001z"></path>
</symbol>
<symbol id="arrow-right2" viewBox="0 0 32 32">
<path d="M19.414 27.414l10-10c0.781-0.781 0.781-2.047 0-2.828l-10-10c-0.781-0.781-2.047-0.781-2.828 0s-0.781 2.047 0 2.828l6.586 6.586h-19.172c-1.105 0-2 0.895-2 2s0.895 2 2 2h19.172l-6.586 6.586c-0.39 0.39-0.586 0.902-0.586 1.414s0.195 1.024 0.586 1.414c0.781 0.781 2.047 0.781 2.828 0z"></path>
</symbol>
<symbol id="arrow-left2" viewBox="0 0 32 32">
<path d="M12.586 27.414l-10-10c-0.781-0.781-0.781-2.047 0-2.828l10-10c0.781-0.781 2.047-0.781 2.828 0s0.781 2.047 0 2.828l-6.586 6.586h19.172c1.105 0 2 0.895 2 2s-0.895 2-2 2h-19.172l6.586 6.586c0.39 0.39 0.586 0.902 0.586 1.414s-0.195 1.024-0.586 1.414c-0.781 0.781-2.047 0.781-2.828 0z"></path>
</symbol>
<symbol id="icon-close-btn" viewBox="0 0 32 32">
<path d="M16 14.115l6.6-6.6 1.885 1.885-6.6 6.6 6.6 6.6-1.885 1.885-6.6-6.6-6.6 6.6-1.885-1.885 6.6-6.6-6.6-6.6 1.885-1.885 6.6 6.6z"></path>
</symbol>
</defs>
</svg>
