<svg class="svg-icon" style="width: 1.0068359375em; height: 1em;vertical-align: middle;fill: currentColor;overflow: hidden;" viewBox="0 0 1031 1024" version="1.1" xmlns="http://www.w3.org/2000/svg"><path d="M981.802667 406.698667c11.989333-51.498667 50.133333-103.082667 50.133333-103.082667h-171.178667c-96.042667-62.08-212.522667-94.976-341.888-94.976-133.973333 0-255.061333 33.28-350.464 96.042667H7.936s37.76 50.602667 49.92 101.802666a256.170667 256.170667 0 0 0-49.792 151.765334 256.64 256.64 0 0 0 256.512 256.341333c80.682667 0 152.362667-37.76 199.722667-96.170667l54.4 81.749334 55.082666-82.602667a249.813333 249.813333 0 0 0 94.08 74.24 256.554667 256.554667 0 0 0 195.925334 7.68c132.522667-49.237333 200.362667-197.162667 151.722666-329.642667a248.362667 248.362667 0 0 0-34.56-63.36l0.853334 0.213334z m-135.296 344.405333a202.922667 202.922667 0 0 1-241.408-79.786667 195.413333 195.413333 0 0 1-21.461334-41.429333 203.733333 203.733333 0 0 1-11.050666-51.84 204.8 204.8 0 0 1 17.28-104.661333 204.885333 204.885333 0 0 1 378.325333 14.72 205.141333 205.141333 0 0 1-120.96 262.954666h-0.725333z m-412.501334-78.250667a204.885333 204.885333 0 0 1-169.514666 90.154667 205.141333 205.141333 0 0 1-204.842667-204.672c0-112.682667 91.989333-204.885333 204.842667-204.885333s204.714667 92.202667 204.714666 204.885333c0 6.997333-1.28 13.397333-2.048 20.437333a205.056 205.056 0 0 1-33.152 94.762667v-0.682667zM134.4 555.648c0 70.016 57.002667 126.762667 126.762667 126.762667s126.634667-56.746667 126.634666-126.762667a126.72 126.72 0 0 0-253.312 0H134.4z m514.048 0a126.72 126.72 0 0 0 126.634667 126.762667 126.592 126.592 0 1 0 0-253.226667 126.848 126.848 0 0 0-126.762667 126.464h0.128z m-470.272 0c0-45.696 37.077333-82.901333 82.602667-82.901333 45.397333 0 83.157333 37.248 83.157333 82.901333a83.2 83.2 0 1 1-166.4 0h0.64z m513.408 0c0-45.696 37.077333-82.901333 83.157333-82.901333 45.482667 0 82.645333 37.248 82.645334 82.901333a83.2 83.2 0 1 1-166.442667 0h0.64zM518.656 253.44c92.202667 0 175.402667 16.597333 248.405333 49.578667a256.554667 256.554667 0 0 0-81.322666 15.36 251.648 251.648 0 0 0-144 133.333333 253.866667 253.866667 0 0 0-23.082667 88.106667 257.024 257.024 0 0 0-250.922667-237.994667C340.736 270.506667 425.258667 253.44 516.778667 253.44h1.877333z" fill="" /></svg>